<?xml version="1.0" encoding="UTF-8"?>
<!DOCTYPE svg PUBLIC "-//W3C//DTD SVG 1.1//EN" "http://www.w3.org/Graphics/SVG/1.1/DTD/svg11.dtd">
<!-- Creator: CorelDRAW X7 -->
<svg xmlns="http://www.w3.org/2000/svg" xml:space="preserve" width="3.3866mm" height="3.3866mm" version="1.1" style="shape-rendering:geometricPrecision; text-rendering:geometricPrecision; image-rendering:optimizeQuality; fill-rule:evenodd; clip-rule:evenodd"
viewBox="0 0 339 339"
 xmlns:xlink="http://www.w3.org/1999/xlink">
 <defs>
  <style type="text/css">
   <![CDATA[
    .fil0 {fill:#2B2A29}
   ]]>
  </style>
 </defs>
 <g id="Warstwa_x0020_1">
  <metadata id="CorelCorpID_0Corel-Layer"/>
  <g>
   <path class="fil0" d="M128 177l0 0 -10 0 -3 9 -8 0 12 -32 8 0 12 32 -8 0 -3 -9zm-9 -5l7 0 -3 -10 -4 10zm59 14l7 0 0 -20 -7 0 0 20zm43 -4c1,0 3,-1 3,-1l0 -3 0 0c-3,-2 -7,-1 -7,1 0,2 2,3 4,3l0 0zm-9 -10l0 -5c0,0 5,-1 10,-1 5,0 9,2 9,7l0 12c-4,1 -10,2 -13,1 -4,0 -8,-2 -8,-7 0,-5 7,-7 13,-6l1 0 0 -1c0,-1 -1,-2 -4,-2 -2,0 -4,1 -5,1 -1,0 -3,1 -3,1l0 0zm-4 -5l0 5c0,0 -4,-2 -7,-2 -3,0 -6,2 -6,5 0,4 3,6 7,6 3,0 6,-2 6,-2l0 6 0 0c-2,1 -5,1 -7,1l-1 0c-3,0 -7,-1 -9,-3 -2,-2 -4,-4 -4,-7 0,-3 2,-6 4,-8 3,-2 6,-2 9,-2 3,-1 6,0 8,1l0 0zm-60 4l0 15 -7 0 0 -19c4,-1 6,-1 9,-1 4,0 7,1 7,1 2,-1 6,-2 10,-1 5,0 7,4 7,8l0 12 -7 0 0 -13c0,-1 -1,-3 -6,-2l0 0 0 15 -7 0 0 -13c0,-1 -2,-3 -6,-2l0 0zm28 -13c0,-3 2,-6 5,-6 3,0 6,3 6,6 0,3 -3,5 -6,5 -3,0 -5,-2 -5,-5l0 0z"/>
  </g>
 </g>
</svg>
