<?xml version="1.0" encoding="UTF-8"?>
<!DOCTYPE svg PUBLIC "-//W3C//DTD SVG 1.1//EN" "http://www.w3.org/Graphics/SVG/1.1/DTD/svg11.dtd">
<!-- Creator: CorelDRAW X7 -->
<svg xmlns="http://www.w3.org/2000/svg" xml:space="preserve" width="3.3866mm" height="3.3866mm" version="1.1" style="shape-rendering:geometricPrecision; text-rendering:geometricPrecision; image-rendering:optimizeQuality; fill-rule:evenodd; clip-rule:evenodd"
viewBox="0 0 339 339"
 xmlns:xlink="http://www.w3.org/1999/xlink">
 <defs>
  <style type="text/css">
   <![CDATA[
    .fil0 {fill:#371A45;fill-rule:nonzero}
   ]]>
  </style>
 </defs>
 <g id="Warstwa_x0020_1">
  <metadata id="CorelCorpID_0Corel-Layer"/>
  <g id="_845560992">
   <polygon class="fil0" points="252,240 266,240 266,118 207,118 207,186 207,191 201,191 137,191 137,240 221,240 221,273 "/>
   <path class="fil0" d="M73 186l13 0 32 34 0 -34 19 0 64 0 0 -68 0 -53 -128 0 0 121zm107 -70l0 0c2,0 5,1 7,2 2,2 4,5 4,9 0,6 -5,10 -11,10 -6,0 -11,-5 -11,-11 0,-3 1,-6 4,-8 2,-1 4,-2 7,-2zm-29 0l0 0c3,0 5,1 7,2 3,2 4,5 4,9 0,6 -5,10 -11,10 -6,0 -11,-5 -11,-11 0,-3 2,-6 4,-8 2,-1 5,-2 7,-2zm-28 0l0 0c6,0 11,5 11,11 0,6 -5,11 -11,11 -6,0 -11,-5 -11,-11 0,-6 5,-11 11,-11zm-29 0l0 0c6,0 11,5 11,11 0,6 -5,11 -11,11 -6,0 -10,-5 -10,-11 0,-6 4,-11 10,-11z"/>
  </g>
 </g>
</svg>
