<?xml version="1.0" encoding="UTF-8"?>
<!DOCTYPE svg PUBLIC "-//W3C//DTD SVG 1.1//EN" "http://www.w3.org/Graphics/SVG/1.1/DTD/svg11.dtd">
<!-- Creator: CorelDRAW X7 -->
<svg xmlns="http://www.w3.org/2000/svg" xml:space="preserve" width="3.3866mm" height="3.3866mm" version="1.1" style="shape-rendering:geometricPrecision; text-rendering:geometricPrecision; image-rendering:optimizeQuality; fill-rule:evenodd; clip-rule:evenodd"
viewBox="0 0 339 339"
 xmlns:xlink="http://www.w3.org/1999/xlink">
 <defs>
  <style type="text/css">
   <![CDATA[
    .fil0 {fill:#2B2A29}
   ]]>
  </style>
 </defs>
 <g id="Warstwa_x0020_1">
  <metadata id="CorelCorpID_0Corel-Layer"/>
  <path class="fil0" d="M123 154l0 5 -17 0 0 7 14 0 0 5 -14 0 0 9 17 0 0 5 -23 0 0 -31 23 0zm45 8c0,-2 -2,-4 -6,-4 -3,-1 -6,1 -6,3 -1,2 1,4 3,4 0,0 5,2 6,2 1,0 5,1 8,3 4,4 3,11 -2,14 -3,2 -5,2 -10,2 -2,0 -5,-1 -8,-2 -3,-2 -4,-5 -4,-8l6 0c0,1 0,2 2,4 1,1 4,1 6,1 2,0 4,-1 5,-1 2,-2 1,-4 -1,-6 -2,-2 -8,-2 -12,-4 -3,-1 -6,-4 -5,-8 0,-6 5,-9 12,-9 2,0 7,0 10,4 2,2 2,4 2,5l-6 0zm23 24c-4,0 -8,-1 -11,-4 -2,-3 -4,-8 -4,-12 0,-5 2,-10 4,-13 3,-2 7,-4 11,-4 4,0 8,2 10,4 3,3 5,8 5,13 0,4 -2,9 -5,12 -2,3 -6,4 -10,4zm23 -32l13 21 0 -21 6 0 0 31 -6 0 -14 -22 0 22 -6 0 0 -31 7 0zm-83 20l8 0c3,1 7,-1 9,-6 1,-2 1,-6 -1,-9 -2,-5 -6,-5 -9,-5l-13 0 0 31 6 0 0 -11 0 0zm60 7c2,0 4,-1 5,-2 2,-2 4,-6 4,-9 0,-4 -1,-8 -3,-10 -2,-1 -3,-2 -6,-2 -3,0 -4,1 -6,2 -2,2 -3,6 -3,10 0,3 1,7 3,9 2,1 3,2 6,2l0 0zm-60 -22l7 0c2,0 4,1 4,3 1,1 0,3 0,4 0,1 -1,3 -4,3l-7 0 0 -10zm106 -2c1,0 2,-1 2,-2 0,-2 -1,-3 -2,-3 -1,0 -2,1 -2,3 0,1 1,2 2,2zm0 0c-1,0 -2,-1 -2,-2 0,-1 1,-2 2,-2 1,0 2,1 2,2 0,1 -1,2 -2,2zm0 -2c1,0 1,0 1,-1 0,0 0,-1 -1,-1l-1 0 0 3 0 0 0 -1 1 0 1 1 0 0 -1 -1zm-1 -1l0 0 1 0c0,0 1,0 1,0 0,1 -1,0 -1,0l-1 0z"/>
 </g>
</svg>
