<?xml version="1.0" encoding="UTF-8"?>
<!DOCTYPE svg PUBLIC "-//W3C//DTD SVG 1.1//EN" "http://www.w3.org/Graphics/SVG/1.1/DTD/svg11.dtd">
<!-- Creator: CorelDRAW X7 -->
<svg xmlns="http://www.w3.org/2000/svg" xml:space="preserve" width="3.3866mm" height="3.3866mm" version="1.1" style="shape-rendering:geometricPrecision; text-rendering:geometricPrecision; image-rendering:optimizeQuality; fill-rule:evenodd; clip-rule:evenodd"
viewBox="0 0 339 339"
 xmlns:xlink="http://www.w3.org/1999/xlink">
 <defs>
  <style type="text/css">
   <![CDATA[
    .fil0 {fill:#2B2A29;fill-rule:nonzero}
   ]]>
  </style>
 </defs>
 <g id="Warstwa_x0020_1">
  <metadata id="CorelCorpID_0Corel-Layer"/>
  <path class="fil0" d="M215 122c-2,-2 -15,-19 -44,-19 -29,0 -53,23 -53,60 0,36 30,72 69,72 11,0 21,-3 26,-5l0 -31 -28 -1 13 -8 45 0 -8 8 0 35c0,0 -19,10 -58,10 -40,0 -81,-18 -81,-73 0,-56 50,-75 79,-75 29,0 55,12 59,16 0,1 -15,15 -18,18 0,0 -6,0 -6,0 4,-6 5,-7 5,-7z"/>
 </g>
</svg>
