<?xml version="1.0" encoding="UTF-8"?>
<!DOCTYPE svg PUBLIC "-//W3C//DTD SVG 1.1//EN" "http://www.w3.org/Graphics/SVG/1.1/DTD/svg11.dtd">
<!-- Creator: CorelDRAW X7 -->
<svg xmlns="http://www.w3.org/2000/svg" xml:space="preserve" width="3.3866mm" height="3.3866mm" version="1.1" style="shape-rendering:geometricPrecision; text-rendering:geometricPrecision; image-rendering:optimizeQuality; fill-rule:evenodd; clip-rule:evenodd"
viewBox="0 0 339 339"
 xmlns:xlink="http://www.w3.org/1999/xlink">
 <defs>
  <style type="text/css">
   <![CDATA[
    .fil1 {fill:#FEFEFE;fill-rule:nonzero}
    .fil0 {fill:#371A45;fill-rule:nonzero}
   ]]>
  </style>
 </defs>
 <g id="Warstwa_x0020_1">
  <metadata id="CorelCorpID_0Corel-Layer"/>
  <g id="_845462624">
   <path class="fil0" d="M312 169c0,79 -64,143 -143,143 -78,0 -142,-64 -142,-143 0,-78 64,-142 142,-142 79,0 143,64 143,142z"/>
   <g>
    <path class="fil1" d="M230 91l-7 0 0 2c0,5 -4,10 -10,10 -5,0 -10,-5 -10,-10l0 -2 -7 0 0 2c0,5 -5,10 -10,10 -6,0 -10,-5 -10,-10l0 -2 -8 0 0 2c0,5 -4,10 -10,10 -5,0 -10,-5 -10,-10l0 -2 -8 0 0 2c0,5 -4,10 -10,10 -5,0 -9,-5 -9,-10l0 -2 -13 0c-10,0 -18,11 -18,26l0 101c0,14 8,26 18,26l122 0c11,0 19,-12 19,-26l0 -101c0,-15 -8,-26 -19,-26zm-1 112l0 0c0,10 -2,18 -13,19l-92 0c-12,0 -14,-9 -14,-19l0 -70c0,-10 3,-19 14,-18l92 0c12,-1 13,8 13,18l0 70z"/>
    <path class="fil1" d="M213 98c4,0 6,-2 6,-6l0 -9c0,-4 -2,-6 -6,-6 -3,0 -5,2 -5,6l0 9c0,4 2,6 5,6z"/>
    <path class="fil1" d="M186 98c3,0 6,-2 6,-6l0 -9c0,-4 -3,-6 -6,-6 -3,0 -6,2 -6,6l0 9c0,4 3,6 6,6z"/>
    <path class="fil1" d="M159 98c3,0 5,-2 5,-6l0 -9c0,-4 -2,-6 -5,-6 -4,0 -6,2 -6,6l0 9c0,4 2,6 6,6z"/>
    <path class="fil1" d="M130 99c3,0 6,-3 6,-6l0 -10c0,-3 -3,-6 -6,-6 -3,0 -6,3 -6,6l0 10c0,3 3,6 6,6z"/>
    <g>
     <path class="fil1" d="M168 162c3,0 6,-1 8,-2 2,-2 3,-5 3,-8 0,-3 -1,-5 -2,-7 -2,-2 -5,-3 -8,-3 -2,0 -3,1 -5,1 -1,1 -2,2 -3,2 -1,1 -1,3 -2,4 -1,2 -1,3 -2,4 0,1 -1,2 -2,2 -1,0 -2,1 -3,1 -1,0 -2,-1 -3,-2 -2,-1 -2,-3 -2,-4 0,-2 0,-4 1,-6 2,-2 3,-4 5,-5 2,-2 5,-4 8,-5 3,-1 6,-1 10,-1 3,0 6,0 9,1 2,1 5,2 7,4 2,2 3,4 4,6 1,2 2,4 2,7 0,3 -1,6 -2,9 -2,2 -4,4 -7,7 3,1 5,3 7,4 2,2 3,4 4,6 1,3 1,5 1,8 0,3 0,6 -2,8 -1,3 -3,6 -5,8 -2,2 -5,4 -8,5 -4,2 -7,2 -11,2 -4,0 -8,-1 -11,-2 -3,-1 -6,-3 -8,-5 -2,-3 -4,-5 -5,-7 -1,-2 -1,-4 -1,-6 0,-2 0,-3 2,-5 1,-1 2,-1 4,-1 1,0 2,0 3,0 1,1 1,2 2,2 1,5 3,9 5,11 2,2 5,3 9,3 2,0 4,0 6,-1 2,-1 3,-3 5,-5 1,-2 1,-4 1,-7 0,-4 -1,-7 -3,-9 -2,-2 -5,-3 -9,-3 0,0 -1,0 -3,0 -1,0 -2,0 -3,0 -1,0 -3,0 -4,-1 -1,-1 -1,-3 -1,-4 0,-2 0,-3 1,-4 2,-1 3,-2 6,-2l2 0z"/>
    </g>
   </g>
  </g>
 </g>
</svg>
