<?xml version="1.0" encoding="UTF-8"?>
<!DOCTYPE svg PUBLIC "-//W3C//DTD SVG 1.1//EN" "http://www.w3.org/Graphics/SVG/1.1/DTD/svg11.dtd">
<!-- Creator: CorelDRAW X7 -->
<svg xmlns="http://www.w3.org/2000/svg" xml:space="preserve" width="3.3866mm" height="3.3866mm" version="1.1" style="shape-rendering:geometricPrecision; text-rendering:geometricPrecision; image-rendering:optimizeQuality; fill-rule:evenodd; clip-rule:evenodd"
viewBox="0 0 339 339"
 xmlns:xlink="http://www.w3.org/1999/xlink">
 <defs>
  <style type="text/css">
   <![CDATA[
    .fil0 {fill:#2B2A29;fill-rule:nonzero}
   ]]>
  </style>
 </defs>
 <g id="Warstwa_x0020_1">
  <metadata id="CorelCorpID_0Corel-Layer"/>
  <g id="_135092272">
   <path class="fil0" d="M116 134c8,0 15,-7 15,-16 0,-8 -7,-15 -15,-15 -9,0 -16,7 -16,15 0,9 7,16 16,16z"/>
   <path class="fil0" d="M129 143l-27 0c-1,0 -2,1 -2,2l0 89c0,1 1,2 2,2l27 0c1,0 2,-1 2,-2l0 -89c0,-1 -1,-2 -2,-2z"/>
   <path class="fil0" d="M238 165c-2,-7 -10,-23 -32,-23 -13,0 -22,6 -27,12l0 -9c0,-1 -1,-2 -2,-2l-27 0c-1,0 -2,1 -2,2l0 89c0,1 1,2 2,2l27 0c1,0 2,-1 2,-2l0 -54c0,-6 5,-14 14,-14 14,0 14,8 14,18l0 50c0,1 1,2 2,2l28 0c0,0 1,-1 1,-2l0 -63c0,-6 0,-6 0,-6z"/>
  </g>
 </g>
</svg>
