<?xml version="1.0" encoding="UTF-8"?>
<!DOCTYPE svg PUBLIC "-//W3C//DTD SVG 1.1//EN" "http://www.w3.org/Graphics/SVG/1.1/DTD/svg11.dtd">
<!-- Creator: CorelDRAW X7 -->
<svg xmlns="http://www.w3.org/2000/svg" xml:space="preserve" width="3.3866mm" height="3.3866mm" version="1.1" style="shape-rendering:geometricPrecision; text-rendering:geometricPrecision; image-rendering:optimizeQuality; fill-rule:evenodd; clip-rule:evenodd"
viewBox="0 0 339 339"
 xmlns:xlink="http://www.w3.org/1999/xlink">
 <defs>
  <style type="text/css">
   <![CDATA[
    .fil1 {fill:#FEFEFE;fill-rule:nonzero}
    .fil0 {fill:#371A45;fill-rule:nonzero}
   ]]>
  </style>
 </defs>
 <g id="Warstwa_x0020_1">
  <metadata id="CorelCorpID_0Corel-Layer"/>
  <g id="_849297664">
   <path class="fil0" d="M307 169c0,76 -62,138 -138,138 -76,0 -137,-62 -137,-138 0,-76 61,-137 137,-137 76,0 138,61 138,137z"/>
   <path class="fil1" d="M77 182c-6,-34 16,-42 16,-42 0,0 8,-59 76,-59 69,0 74,58 74,58 0,0 22,8 21,36 0,45 -29,52 -29,52 -16,0 -17,-14 -17,-14 0,0 0,-42 0,-56 0,-14 16,-16 16,-16 0,-12 -27,-54 -65,-54 -38,0 -63,41 -64,55 14,-3 16,10 16,10 0,0 0,29 0,45 0,17 -3,21 -11,23 3,11 22,18 22,18l7 2c2,-6 7,-11 13,-11 8,0 15,7 15,15 0,8 -7,15 -15,15 -5,0 -13,-4 -13,-13l0 -1c-16,-1 -31,-15 -35,-24 0,0 -19,3 -27,-39z"/>
  </g>
 </g>
</svg>
