<?xml version="1.0" encoding="UTF-8"?>
<!DOCTYPE svg PUBLIC "-//W3C//DTD SVG 1.1//EN" "http://www.w3.org/Graphics/SVG/1.1/DTD/svg11.dtd">
<!-- Creator: CorelDRAW X7 -->
<svg xmlns="http://www.w3.org/2000/svg" xml:space="preserve" width="3.3866mm" height="3.3866mm" version="1.1" style="shape-rendering:geometricPrecision; text-rendering:geometricPrecision; image-rendering:optimizeQuality; fill-rule:evenodd; clip-rule:evenodd"
viewBox="0 0 339 339"
 xmlns:xlink="http://www.w3.org/1999/xlink">
 <defs>
  <style type="text/css">
   <![CDATA[
    .fil0 {fill:#2B2A29}
   ]]>
  </style>
 </defs>
 <g id="Warstwa_x0020_1">
  <metadata id="CorelCorpID_0Corel-Layer"/>
  <path class="fil0" d="M102 160l10 0 7 -8 10 0 0 10 -7 7 7 8 0 9 -11 0 -7 -7 -9 0 0 -19zm10 0l-10 9 10 9 0 -18zm1 0l8 0 0 8 -8 -8zm0 18l8 0 0 -8 -8 8zm24 1l0 -19 -4 0 0 19 4 0zm11 -19l-4 0 -7 9 7 10 4 0 -7 -10 7 -9 0 0zm3 0l-3 0 0 9c0,1 1,2 2,2l7 0 0 5 -8 0 0 3 10 0c1,0 2,-1 2,-2l0 -17 -3 0 0 8 -7 0 0 -8zm25 19c0,0 1,0 1,-1l0 -17c0,-1 -1,-1 -1,-1l-12 0c-1,0 -1,0 -1,1l0 17c0,1 0,1 1,1l12 0 0 0 0 0zm-3 -3l0 -13 -6 0 0 13 6 0zm18 0l-9 0 0 -13 9 0 0 -3 -11 0c-1,0 -2,0 -2,1l0 17c0,1 1,1 2,1l11 0 0 -3zm13 -13l0 -3 -11 0c-1,0 -2,0 -2,1l0 17c0,1 1,1 2,1l11 0 0 -3 -9 0 0 -5 8 0 0 -3 -8 0 0 -5 9 0 0 0zm1 -3l0 19 3 0 0 -16 6 0 0 5 -4 0 6 11 4 0 -5 -8 2 0c0,0 1,-1 1,-2l0 -7c0,-1 -1,-2 -2,-2l-11 0zm15 0l10 0c1,0 2,1 2,2l0 17 -10 0c-2,0 -3,-1 -3,-2l0 -7c0,-1 1,-2 2,-2l8 0 0 -5 -9 0 0 -3zm9 16l0 -5 -6 0 0 5 6 0zm6 -14c-1,0 -2,0 -2,-2 0,-1 1,-1 2,-1 1,0 2,0 2,1 0,2 -1,2 -2,2zm0 -3c0,0 -1,1 -1,1 0,1 1,2 1,2l0 0c1,0 2,-1 2,-2 0,0 -1,-1 -2,-1zm0 2l0 0 0 -2 0 0c1,0 1,1 1,1 0,0 0,1 0,1l0 0 0 0 -1 0 0 0 0 0zm0 -1c1,0 1,0 1,0 0,0 -1,0 -1,0l0 0 0 0 0 0z"/>
 </g>
</svg>
