<?xml version="1.0" encoding="UTF-8"?>
<!DOCTYPE svg PUBLIC "-//W3C//DTD SVG 1.1//EN" "http://www.w3.org/Graphics/SVG/1.1/DTD/svg11.dtd">
<!-- Creator: CorelDRAW X7 -->
<svg xmlns="http://www.w3.org/2000/svg" xml:space="preserve" width="4.2332mm" height="4.2332mm" version="1.1" style="shape-rendering:geometricPrecision; text-rendering:geometricPrecision; image-rendering:optimizeQuality; fill-rule:evenodd; clip-rule:evenodd"
viewBox="0 0 423 423"
 xmlns:xlink="http://www.w3.org/1999/xlink">
 <defs>
  <style type="text/css">
   <![CDATA[
    .fil0 {fill:#2B2A29;fill-rule:nonzero}
   ]]>
  </style>
 </defs>
 <g id="Warstwa_x0020_1">
  <metadata id="CorelCorpID_0Corel-Layer"/>
  <path class="fil0" d="M345 302l-71 -62c-1,-2 -3,-3 -5,-4 9,-15 14,-33 14,-53 0,-58 -47,-106 -105,-106 -59,0 -106,48 -106,106 0,59 47,106 106,106 21,0 40,-6 57,-17 1,2 2,4 4,6l71 63c8,7 22,7 30,-2l6 -7c8,-9 7,-22 -1,-30zm-167 -54l0 0c-36,0 -65,-29 -65,-65 0,-36 29,-65 65,-65 35,0 64,29 64,65 0,36 -29,65 -64,65z"/>
 </g>
</svg>
