<?xml version="1.0" encoding="UTF-8"?>
<!DOCTYPE svg PUBLIC "-//W3C//DTD SVG 1.1//EN" "http://www.w3.org/Graphics/SVG/1.1/DTD/svg11.dtd">
<!-- Creator: CorelDRAW X7 -->
<svg xmlns="http://www.w3.org/2000/svg" xml:space="preserve" width="3.3866mm" height="3.3866mm" version="1.1" style="shape-rendering:geometricPrecision; text-rendering:geometricPrecision; image-rendering:optimizeQuality; fill-rule:evenodd; clip-rule:evenodd"
viewBox="0 0 339 339"
 xmlns:xlink="http://www.w3.org/1999/xlink">
 <defs>
  <style type="text/css">
   <![CDATA[
    .fil1 {fill:#FEFEFE;fill-rule:nonzero}
    .fil0 {fill:#371A45;fill-rule:nonzero}
   ]]>
  </style>
 </defs>
 <g id="Warstwa_x0020_1">
  <metadata id="CorelCorpID_0Corel-Layer"/>
  <g id="_844072208">
   <path class="fil0" d="M306 169c0,76 -61,137 -137,137 -75,0 -136,-61 -136,-137 0,-75 61,-136 136,-136 76,0 137,61 137,136z"/>
   <path class="fil1" d="M244 114c-51,4 -74,-26 -74,-26 -25,31 -80,26 -80,26 -7,92 77,150 77,150 98,-60 77,-150 77,-150zm-77 116l0 0c0,0 -51,-34 -47,-90 0,0 42,-4 49,-17 0,0 14,18 45,15 0,0 12,55 -47,92z"/>
  </g>
 </g>
</svg>
