<?xml version="1.0" encoding="UTF-8"?>
<!DOCTYPE svg PUBLIC "-//W3C//DTD SVG 1.1//EN" "http://www.w3.org/Graphics/SVG/1.1/DTD/svg11.dtd">
<!-- Creator: CorelDRAW X7 -->
<svg xmlns="http://www.w3.org/2000/svg" xml:space="preserve" width="3.3866mm" height="3.3866mm" version="1.1" style="shape-rendering:geometricPrecision; text-rendering:geometricPrecision; image-rendering:optimizeQuality; fill-rule:evenodd; clip-rule:evenodd"
viewBox="0 0 339 339"
 xmlns:xlink="http://www.w3.org/1999/xlink">
 <defs>
  <style type="text/css">
   <![CDATA[
    .fil1 {fill:#FF003D}
    .fil0 {fill:#371A45;fill-rule:nonzero}
   ]]>
  </style>
 </defs>
 <g id="Warstwa_x0020_1">
  <metadata id="CorelCorpID_0Corel-Layer"/>
  <g id="_849659760">
   <path class="fil0" d="M167 165c4,-20 23,-35 44,-35 4,0 7,0 10,1 13,3 23,10 30,21 5,-4 12,-6 19,-7 3,-25 -1,-40 -1,-40 -8,-37 -45,-61 -82,-53 -25,6 -43,24 -51,47 -16,-18 -40,-26 -65,-21 -37,8 -60,45 -52,82 0,0 15,91 159,129 11,-9 20,-17 28,-25 -51,-50 -40,-94 -39,-99z"/>
   <path class="fil0" d="M284 153c-3,0 -6,-1 -8,-1 -3,0 -5,1 -8,1 -8,2 -15,6 -20,12 -4,-13 -15,-23 -28,-26 -3,-1 -6,-1 -9,-1 -17,0 -33,12 -37,29 0,0 -12,43 37,91 4,4 8,8 13,12 80,-21 89,-71 89,-71 4,-21 -8,-41 -29,-46z"/>
   <circle class="fil1" cx="273" cy="99" r="49"/>
  </g>
 </g>
</svg>
