<?xml version="1.0" encoding="UTF-8"?>
<!DOCTYPE svg PUBLIC "-//W3C//DTD SVG 1.1//EN" "http://www.w3.org/Graphics/SVG/1.1/DTD/svg11.dtd">
<!-- Creator: CorelDRAW X7 -->
<svg xmlns="http://www.w3.org/2000/svg" xml:space="preserve" width="3.3866mm" height="3.3866mm" version="1.1" style="shape-rendering:geometricPrecision; text-rendering:geometricPrecision; image-rendering:optimizeQuality; fill-rule:evenodd; clip-rule:evenodd"
viewBox="0 0 339 339"
 xmlns:xlink="http://www.w3.org/1999/xlink">
 <defs>
  <style type="text/css">
   <![CDATA[
    .fil0 {fill:#2B2A29;fill-rule:nonzero}
   ]]>
  </style>
 </defs>
 <g id="Warstwa_x0020_1">
  <metadata id="CorelCorpID_0Corel-Layer"/>
  <g id="_855859120">
   <path class="fil0" d="M143 153c-6,0 -13,3 -16,6 -3,3 -5,7 -5,10 0,4 2,8 5,11 4,3 10,5 16,5 7,0 13,-2 17,-5 3,-3 4,-7 4,-11 0,-3 -1,-7 -4,-10 -4,-4 -10,-6 -17,-6zm9 25l0 0c-2,2 -5,3 -9,3 -3,0 -6,-1 -9,-3 -2,-3 -3,-6 -3,-9 0,-3 1,-6 3,-8 3,-2 6,-3 9,-3 4,0 7,1 9,3 2,2 3,5 3,8 0,4 -1,6 -3,9z"/>
   <path class="fil0" d="M110 167c-1,0 -2,0 -3,-1 -2,0 -8,-1 -10,-1 -3,-1 -7,-1 -9,-1 0,-1 -1,-1 -1,-2 0,-1 0,-2 1,-3 2,-1 5,-1 8,-1 4,0 7,1 10,2 0,0 1,0 2,1 1,0 2,2 2,4l4 0 0 -10 -4 0 0 1c0,0 -1,1 -2,0 -1,0 -6,-3 -12,-3 -4,0 -8,1 -11,3 -3,1 -6,3 -6,7 0,3 2,5 2,5 1,1 2,3 6,3 2,1 6,1 9,2 4,0 7,0 9,1 1,0 3,0 3,3 0,2 -2,2 -2,3 -1,0 -3,1 -8,1 -3,0 -7,-1 -8,-2 -2,0 -4,-1 -5,-3 -1,0 -1,-2 -1,-3l-4 0 0 11 4 0 0 -1c0,-1 1,-1 1,-1 1,0 4,1 7,2 2,1 4,1 6,1 5,0 8,-1 9,-1 2,-1 4,-2 6,-3 1,-1 3,-3 3,-6 0,-3 -2,-5 -3,-6 -1,0 -2,-1 -3,-2z"/>
   <path class="fil0" d="M196 159l4 0c1,0 2,0 2,2l0 12 -19 -18 -14 0 0 4 3 0c2,0 2,1 2,2l0 17c0,1 0,2 -1,2l-4 0 0 3 16 0 0 -3 -4 0c-1,0 -1,-1 -1,-2l0 -14 22 19 6 0 -1 -22c0,-2 0,-2 2,-2l4 0 0 -4 -17 0 0 4z"/>
   <path class="fil0" d="M243 180l-1 -1 0 -1 0 -5 0 -1c0,0 10,-11 11,-12 1,-1 1,-1 3,-1l3 0 0 -4 -16 0 0 4 3 0c0,0 1,0 0,1l-6 8 -1 0 -6 -8c-1,-1 0,-1 0,-1l3 0 0 -4 -20 0 0 4 4 0c1,0 2,1 3,1 0,1 10,12 10,12l0 1 0 5 0 1 0 1 -1 0 -4 0 0 3 20 0 0 -3 -4 0 -1 0z"/>
   <path class="fil0" d="M258 182l0 -1c0,-1 -1,-1 -1,-1 0,0 1,0 1,-1 0,-1 -1,-1 -2,-1l-2 0 0 4 1 0 0 -2 1 0c1,0 1,1 1,1l0 1 1 0 0 0 0 0zm-2 -2l0 0 -1 0 0 -2 1 0c1,0 1,0 1,1 0,1 0,1 -1,1z"/>
   <path class="fil0" d="M256 176c-2,0 -4,2 -4,4 0,2 2,4 4,4 2,0 4,-2 4,-4 0,-2 -2,-4 -4,-4zm0 7l0 0c-2,0 -4,-1 -4,-3 0,-2 2,-3 4,-3 2,0 3,1 3,3 0,2 -1,3 -3,3z"/>
  </g>
 </g>
</svg>
