<?xml version="1.0" encoding="UTF-8"?>
<!DOCTYPE svg PUBLIC "-//W3C//DTD SVG 1.1//EN" "http://www.w3.org/Graphics/SVG/1.1/DTD/svg11.dtd">
<!-- Creator: CorelDRAW X7 -->
<svg xmlns="http://www.w3.org/2000/svg" xml:space="preserve" width="4.2332mm" height="4.2332mm" version="1.1" style="shape-rendering:geometricPrecision; text-rendering:geometricPrecision; image-rendering:optimizeQuality; fill-rule:evenodd; clip-rule:evenodd"
viewBox="0 0 423 423"
 xmlns:xlink="http://www.w3.org/1999/xlink">
 <defs>
  <style type="text/css">
   <![CDATA[
    .fil0 {fill:#2B2A29;fill-rule:nonzero}
   ]]>
  </style>
 </defs>
 <g id="Warstwa_x0020_1">
  <metadata id="CorelCorpID_0Corel-Layer"/>
  <path class="fil0" d="M197 232l-8 -13 -22 -36 -46 -72 0 0c-3,-4 -6,-6 -11,-7 -4,-1 -9,0 -14,2l-13 7 -1 1 0 0c-4,2 -6,5 -7,8 0,3 0,6 1,9l1 0 0 1 0 0 46 71 22 36 46 72 0 0c1,2 4,4 7,6 4,2 9,3 14,3l0 0c4,0 9,-1 13,-3 3,-2 6,-4 8,-6l0 0 45 -72 23 -36 45 -71 0 -1 1 0 0 0c1,-3 2,-6 1,-9l0 0c-1,-3 -3,-6 -6,-8l0 0 -1 -1 -1 0 -13 -7 0 0c-4,-2 -9,-3 -14,-2 -4,1 -8,3 -10,7l0 0 -46 72 -23 36 -8 13 -14 22 -15 -22z"/>
 </g>
</svg>
