<?xml version="1.0" encoding="UTF-8"?>
<!DOCTYPE svg PUBLIC "-//W3C//DTD SVG 1.1//EN" "http://www.w3.org/Graphics/SVG/1.1/DTD/svg11.dtd">
<!-- Creator: CorelDRAW X7 -->
<svg xmlns="http://www.w3.org/2000/svg" xml:space="preserve" width="3.3866mm" height="3.3866mm" version="1.1" style="shape-rendering:geometricPrecision; text-rendering:geometricPrecision; image-rendering:optimizeQuality; fill-rule:evenodd; clip-rule:evenodd"
viewBox="0 0 339 339"
 xmlns:xlink="http://www.w3.org/1999/xlink">
 <defs>
  <style type="text/css">
   <![CDATA[
    .fil0 {fill:#371A45;fill-rule:nonzero}
   ]]>
  </style>
 </defs>
 <g id="Warstwa_x0020_1">
  <metadata id="CorelCorpID_0Corel-Layer"/>
  <g id="_844052400">
   <path class="fil0" d="M275 87c-34,-12 -64,-20 -95,-21 -56,-2 -103,12 -121,21 -27,15 -26,32 -26,32 0,0 61,-3 79,-3 -3,-9 -1,-14 7,-15 45,-11 84,-2 84,-2 23,2 22,16 22,16l81 8c1,-13 -3,-24 -31,-36z"/>
   <path class="fil0" d="M282 153c23,-1 23,-20 23,-20 0,0 -60,-7 -81,-8 0,24 34,29 58,28z"/>
   <path class="fil0" d="M112 127l-78 4c0,0 7,22 25,21 17,-1 39,-2 39,-2 0,0 18,-2 14,-23z"/>
   <path class="fil0" d="M217 129l-10 -1c0,0 0,1 1,8 1,7 -6,6 -6,6l-32 0 -32 0c0,0 -7,1 -6,-6 1,-7 1,-8 1,-8l-10 1c0,0 -7,55 -30,80 -58,59 -3,64 -3,64l48 0 64 0 48 0c0,0 55,-5 -3,-64 -23,-25 -30,-80 -30,-80zm-65 110l0 0 -17 0 0 -17 17 0 0 17zm0 -25l0 0 -17 0 0 -17 17 0 0 17zm0 -26l0 0 -17 0 0 -17 17 0 0 17zm26 51l0 0 -17 0 0 -17 17 0 0 17zm0 -25l0 0 -17 0 0 -17 17 0 0 17zm0 -26l0 0 -17 0 0 -17 17 0 0 17zm27 51l0 0 -17 0 0 -17 17 0 0 17zm0 -25l0 0 -17 0 0 -17 17 0 0 17zm0 -26l0 0 -17 0 0 -17 17 0 0 17z"/>
  </g>
 </g>
</svg>
