<?xml version="1.0" encoding="UTF-8"?>
<!DOCTYPE svg PUBLIC "-//W3C//DTD SVG 1.1//EN" "http://www.w3.org/Graphics/SVG/1.1/DTD/svg11.dtd">
<!-- Creator: CorelDRAW X7 -->
<svg xmlns="http://www.w3.org/2000/svg" xml:space="preserve" width="3.3866mm" height="3.3866mm" version="1.1" style="shape-rendering:geometricPrecision; text-rendering:geometricPrecision; image-rendering:optimizeQuality; fill-rule:evenodd; clip-rule:evenodd"
viewBox="0 0 339 339"
 xmlns:xlink="http://www.w3.org/1999/xlink">
 <defs>
  <style type="text/css">
   <![CDATA[
    .fil0 {fill:#2B2A29}
   ]]>
  </style>
 </defs>
 <g id="Warstwa_x0020_1">
  <metadata id="CorelCorpID_0Corel-Layer"/>
  <g id="_795501088">
   <g id="TESLA">
    <g>
     <path class="fil0" d="M262 166l0 20 6 0 0 -13 24 0 0 13 6 0 0 -20 -36 0 0 0zm5 -7l25 0c4,0 7,-4 7,-7l-39 0c1,3 4,6 7,7l0 0zm-25 27c3,-1 5,-4 5,-6l-29 0 0 -28 -7 0 0 34 31 0 0 0zm-80 -27l24 0c3,-1 6,-4 7,-7l-37 0 0 20 30 0 0 7 -23 0c-4,1 -7,4 -9,7l39 0 0 -20 -30 0 -1 -7 0 0zm-57 0l25 0c4,0 6,-4 7,-7l-39 0c1,3 3,6 7,7l0 0zm0 14l25 0c4,-1 6,-4 7,-7l-39 0c1,3 3,6 7,7l0 0zm0 13l25 0c4,0 6,-4 7,-7l-39 0c1,3 3,7 7,7l0 0zm0 0l0 0 0 0z"/>
    </g>
    <g>
     <path class="fil0" d="M39 152c1,3 4,6 7,7l11 0 0 0 0 27 7 0 0 -27 1 0 10 0c4,-1 6,-4 7,-7l0 0 -43 0z"/>
    </g>
   </g>
  </g>
 </g>
</svg>
