<?xml version="1.0" encoding="UTF-8"?>
<!DOCTYPE svg PUBLIC "-//W3C//DTD SVG 1.1//EN" "http://www.w3.org/Graphics/SVG/1.1/DTD/svg11.dtd">
<!-- Creator: CorelDRAW X7 -->
<svg xmlns="http://www.w3.org/2000/svg" xml:space="preserve" width="3.3866mm" height="3.3866mm" version="1.1" style="shape-rendering:geometricPrecision; text-rendering:geometricPrecision; image-rendering:optimizeQuality; fill-rule:evenodd; clip-rule:evenodd"
viewBox="0 0 339 339"
 xmlns:xlink="http://www.w3.org/1999/xlink">
 <defs>
  <style type="text/css">
   <![CDATA[
    .fil0 {fill:#2B2A29;fill-rule:nonzero}
   ]]>
  </style>
 </defs>
 <g id="Warstwa_x0020_1">
  <metadata id="CorelCorpID_0Corel-Layer"/>
  <g id="_847208736">
   <path class="fil0" d="M205 205l-28 0c-21,0 -24,-9 -24,-17 0,-4 0,-10 1,-17l47 0c8,0 21,-3 21,-16 0,-12 -6,-21 -14,-21l-54 0c0,-18 -1,-36 -19,-36 -8,0 -14,3 -17,11 -3,9 -2,21 -2,31 0,2 0,4 0,6 0,7 0,13 0,20 0,7 0,15 0,22 0,40 38,52 46,52 7,0 36,0 41,0 5,0 20,-1 20,-15 0,-15 -10,-20 -18,-20z"/>
  </g>
 </g>
</svg>
