<?xml version="1.0" encoding="UTF-8"?>
<!DOCTYPE svg PUBLIC "-//W3C//DTD SVG 1.1//EN" "http://www.w3.org/Graphics/SVG/1.1/DTD/svg11.dtd">
<!-- Creator: CorelDRAW X7 -->
<svg xmlns="http://www.w3.org/2000/svg" xml:space="preserve" width="3.3866mm" height="3.3866mm" version="1.1" style="shape-rendering:geometricPrecision; text-rendering:geometricPrecision; image-rendering:optimizeQuality; fill-rule:evenodd; clip-rule:evenodd"
viewBox="0 0 339 339"
 xmlns:xlink="http://www.w3.org/1999/xlink">
 <defs>
  <style type="text/css">
   <![CDATA[
    .fil0 {fill:#2B2A29;fill-rule:nonzero}
   ]]>
  </style>
 </defs>
 <g id="Warstwa_x0020_1">
  <metadata id="CorelCorpID_0Corel-Layer"/>
  <g id="_849286144">
   <g>
    <polygon class="fil0" points="136,110 129,85 119,85 131,122 131,148 140,148 140,122 152,85 143,85 "/>
    <path class="fil0" d="M200 101l0 36c-7,7 -7,2 -7,2l0 -38 -9 0 0 40c0,4 2,6 2,6 6,6 14,-4 14,-4l0 5 9 0 0 -47 -9 0z"/>
    <path class="fil0" d="M165 100c-13,0 -13,13 -13,13 0,0 0,12 0,24 0,12 13,12 13,12 13,0 12,-13 12,-13l0 -24c0,-13 -12,-12 -12,-12zm3 36l0 0c0,0 0,4 -3,4 0,0 -4,1 -4,-4l0 -24c0,0 0,-4 4,-4 0,0 3,0 3,4l0 24z"/>
   </g>
   <g>
    <path class="fil0" d="M215 196c-4,0 -4,5 -4,5l0 6 9 0 0 -6c0,0 -1,-5 -5,-5z"/>
    <path class="fil0" d="M237 174c-1,-13 -13,-15 -13,-15 -63,-6 -109,0 -109,0 -11,2 -14,15 -14,15 -3,8 -1,53 -1,53 0,25 17,25 17,25 44,4 104,0 104,0 15,-2 16,-15 16,-15 5,-25 0,-63 0,-63zm-100 8l0 0 -10 0 0 55 -10 0 0 -55 -10 0 0 -9 30 0 0 9zm26 55l0 0 -9 0 0 -5c0,0 -16,15 -16,-3 0,-17 0,-40 0,-40l9 0 0 39c0,0 0,6 7,-2l0 -37 9 0 0 48zm33 -9l0 0c0,0 -1,17 -17,4l0 5 -9 0 0 -64 9 0 0 20c0,0 15,-14 17,6l0 29zm32 -14l0 0 -17 0c0,0 0,4 0,10 0,6 5,5 5,5 3,0 3,-4 3,-4l0 -5 9 0 0 7c0,10 -12,10 -12,10 -13,0 -14,-12 -14,-12 0,0 0,-10 0,-24 0,-13 14,-13 14,-13 11,0 12,13 12,13l0 13z"/>
    <path class="fil0" d="M179 198l0 29c7,4 8,-1 8,-1 0,0 0,-18 0,-26 0,-8 -8,-2 -8,-2z"/>
   </g>
  </g>
 </g>
</svg>
