<?xml version="1.0" encoding="UTF-8"?>
<!DOCTYPE svg PUBLIC "-//W3C//DTD SVG 1.1//EN" "http://www.w3.org/Graphics/SVG/1.1/DTD/svg11.dtd">
<!-- Creator: CorelDRAW X7 -->
<svg xmlns="http://www.w3.org/2000/svg" xml:space="preserve" width="3.3866mm" height="3.3866mm" version="1.1" style="shape-rendering:geometricPrecision; text-rendering:geometricPrecision; image-rendering:optimizeQuality; fill-rule:evenodd; clip-rule:evenodd"
viewBox="0 0 339 339"
 xmlns:xlink="http://www.w3.org/1999/xlink">
 <defs>
  <style type="text/css">
   <![CDATA[
    .fil0 {fill:#371A45}
    .fil1 {fill:#371A45;fill-rule:nonzero}
   ]]>
  </style>
 </defs>
 <g id="Warstwa_x0020_1">
  <metadata id="CorelCorpID_0Corel-Layer"/>
  <rect class="fil0" x="52" y="146" width="250.256" height="55.4031" rx="3" ry="8"/>
  <path class="fil1" d="M60 144l234 0c3,0 5,2 7,3l0 0c2,2 3,5 3,8l0 38c0,3 -1,5 -3,7l0 0c-2,2 -4,3 -7,3l-234 0c-2,0 -5,-1 -7,-3l0 0c-2,-2 -3,-4 -3,-7l0 -38c0,-3 1,-6 3,-8l0 0c2,-1 5,-3 7,-3zm234 4l-234 0c-1,0 -3,1 -4,2l0 0c-2,1 -2,3 -2,5l0 38c0,2 0,4 2,5l0 0c1,1 3,2 4,2l234 0c2,0 3,-1 5,-2l0 0c1,-1 2,-3 2,-5l0 -38c0,-2 -1,-4 -2,-5l0 0c-2,-1 -3,-2 -5,-2z"/>
 </g>
</svg>
