<?xml version="1.0" encoding="UTF-8"?>
<!DOCTYPE svg PUBLIC "-//W3C//DTD SVG 1.1//EN" "http://www.w3.org/Graphics/SVG/1.1/DTD/svg11.dtd">
<!-- Creator: CorelDRAW X7 -->
<svg xmlns="http://www.w3.org/2000/svg" xml:space="preserve" width="3.3866mm" height="3.3866mm" version="1.1" style="shape-rendering:geometricPrecision; text-rendering:geometricPrecision; image-rendering:optimizeQuality; fill-rule:evenodd; clip-rule:evenodd"
viewBox="0 0 339 339"
 xmlns:xlink="http://www.w3.org/1999/xlink">
 <defs>
  <style type="text/css">
   <![CDATA[
    .fil1 {fill:#FEFEFE;fill-rule:nonzero}
    .fil0 {fill:#371A45;fill-rule:nonzero}
   ]]>
  </style>
 </defs>
 <g id="Warstwa_x0020_1">
  <metadata id="CorelCorpID_0Corel-Layer"/>
  <g id="_844068176">
   <path class="fil0" d="M306 169c0,76 -61,137 -137,137 -75,0 -136,-61 -136,-137 0,-75 61,-136 136,-136 76,0 137,61 137,136z"/>
   <path class="fil1" d="M253 170c0,-4 -3,-7 -7,-7l-14 0c-4,0 -7,3 -7,7l0 0c0,1 0,1 0,2 0,32 -26,58 -58,58 -32,-1 -58,-27 -57,-59 0,-31 26,-57 58,-57 6,0 12,1 18,3 -1,2 -2,3 -3,4 -8,9 -4,18 7,20 12,2 31,6 42,8 12,2 18,-6 14,-17 -4,-11 -10,-29 -14,-40 -4,-11 -14,-13 -21,-4 -2,2 -4,5 -6,7 -11,-6 -24,-9 -37,-9 -47,0 -86,38 -86,85 -1,48 38,86 85,86 47,1 86,-37 86,-85 0,0 0,-1 0,-1 0,-1 0,-1 0,-1z"/>
  </g>
 </g>
</svg>
